<?xml version="1.0" encoding="iso-8859-1"?>
<!-- Generator: Adobe Illustrator 19.0.0, SVG Export Plug-In . SVG Version: 6.00 Build 0)  -->
<svg version="1.1" id="Capa_1" xmlns="http://www.w3.org/2000/svg" xmlns:xlink="http://www.w3.org/1999/xlink" x="0px" y="0px"
	 viewBox="0 0 511.935 511.935" style="enable-background:new 0 0 511.935 511.935;" xml:space="preserve">
<g>
	
		<linearGradient id="SVGID_1_" gradientUnits="userSpaceOnUse" x1="-48.6895" y1="652.4829" x2="-48.1057" y2="651.5836" gradientTransform="matrix(443.4189 0 0 -498.5263 21712.4199 325372.9375)">
		<stop  offset="0" style="stop-color:#D4E1F4"/>
		<stop  offset="0.1717" style="stop-color:#D4E1F4"/>
		<stop  offset="0.2" style="stop-color:#D4E1F4"/>
		<stop  offset="0.2001" style="stop-color:#DAE4F4"/>
		<stop  offset="0.2007" style="stop-color:#EBEBF4"/>
		<stop  offset="0.2014" style="stop-color:#F6F1F4"/>
		<stop  offset="0.2023" style="stop-color:#FDF4F4"/>
		<stop  offset="0.205" style="stop-color:#FFF5F4"/>
		<stop  offset="0.2522" style="stop-color:#FFF5F4"/>
		<stop  offset="0.26" style="stop-color:#FFF5F4"/>
		<stop  offset="0.26" style="stop-color:#D4E1F4"/>
		<stop  offset="0.3974" style="stop-color:#D4E1F4"/>
		<stop  offset="0.42" style="stop-color:#D4E1F4"/>
		<stop  offset="0.4201" style="stop-color:#DAE4F4"/>
		<stop  offset="0.4207" style="stop-color:#EBEBF4"/>
		<stop  offset="0.4214" style="stop-color:#F6F1F4"/>
		<stop  offset="0.4223" style="stop-color:#FDF4F4"/>
		<stop  offset="0.425" style="stop-color:#FFF5F4"/>
		<stop  offset="0.4894" style="stop-color:#FFF5F4"/>
		<stop  offset="0.5" style="stop-color:#FFF5F4"/>
		<stop  offset="0.5" style="stop-color:#F9F2F4"/>
		<stop  offset="0.5001" style="stop-color:#E8EBF4"/>
		<stop  offset="0.5003" style="stop-color:#DDE5F4"/>
		<stop  offset="0.5005" style="stop-color:#D6E2F4"/>
		<stop  offset="0.501" style="stop-color:#D4E1F4"/>
		<stop  offset="0.7062" style="stop-color:#D4E1F4"/>
		<stop  offset="0.74" style="stop-color:#D4E1F4"/>
		<stop  offset="0.741" style="stop-color:#FFF5F4"/>
		<stop  offset="0.8346" style="stop-color:#FFF5F4"/>
		<stop  offset="0.85" style="stop-color:#FFF5F4"/>
		<stop  offset="0.851" style="stop-color:#D4E1F4"/>
	</linearGradient>
	<polygon style="fill:url(#SVGID_1_);" points="477.69,485.796 442.726,505.198 34.271,287.733 238.532,26.074 273.496,6.672 	"/>
	<polygon style="fill:#7FACFA;" points="477.69,485.796 442.726,505.198 238.532,26.074 273.496,6.672 	"/>
	<g>
		<path style="fill:#A4C2F7;" d="M231.75,290.948c6.666,3.55,12.289,1.293,13.116-5.265l14.198-112.613
			c0.087-9.391-4.937-18.088-13.116-22.704l-28.397-15.123c-7.951-4.234-14.102-0.138-13.116,8.734l14.198,127.736
			C219.885,279.773,224.703,286.84,231.75,290.948z"/>
		
			<ellipse transform="matrix(-0.5684 -0.8228 0.8228 -0.5684 88.5661 714.7406)" style="fill:#A4C2F7;" cx="231.754" cy="334.14" rx="23.289" ry="13.918"/>
	</g>
	<polygon style="fill:#FFFFFF;" points="243.807,30.237 189.919,99.276 39.607,291.856 28.989,283.563 179.302,90.99 233.19,21.951 
			"/>
	<g>
		<path style="fill:#428DFF;" d="M211.169,65.267c-0.182-0.388-0.421-0.746-0.71-1.063c-0.304-0.333-0.631-0.646-0.978-0.934
			c-1.422-1.078-3.198-1.579-4.973-1.402c-2.257,0.236-4.238,1.608-5.252,3.638c-1.014,2.03-0.921,4.438,0.246,6.384
			c0.426,0.771,1,1.452,1.688,2.002c2.154,1.667,5.098,1.88,7.469,0.539c2.371-1.34,3.707-3.972,3.39-6.677l-0.299-1.259
			C211.613,66.06,211.417,65.648,211.169,65.267z"/>
		<path style="fill:#428DFF;" d="M249.111,144.422l-28.388-15.125c-5.152-3.24-11.692-3.299-16.901-0.151
			c-4.817,3.62-7.173,9.652-6.086,15.579l14.204,127.724c1.519,10.263,7.648,19.269,16.638,24.447
			c2.789,1.557,5.918,2.407,9.112,2.474c2.249,0.018,4.468-0.51,6.467-1.539c4.216-2.276,6.997-6.528,7.395-11.303l14.197-112.618
			C266.243,161.72,259.8,150.3,249.111,144.422z M238.183,284.836c-0.05,0.348-0.127,0.691-0.23,1.026
			c-1.075,0.031-2.134-0.27-3.033-0.862c-5.086-3.059-8.586-8.183-9.586-14.033l-14.204-127.724
			c-0.164-0.973-0.099-1.971,0.191-2.914c0.097-0.023,0.196-0.034,0.296-0.033c0.98,0.079,1.929,0.385,2.77,0.895l28.395,15.125
			c5.688,3.334,9.301,9.322,9.599,15.908L238.183,284.836z"/>
		<path style="fill:#428DFF;" d="M234.92,309.691c-5.88-3.69-13.277-3.981-19.428-0.763c-5.311,3.497-8.353,9.561-7.98,15.908
			c0.894,14.087,8.81,26.781,21.066,33.783c3.386,1.888,7.183,2.918,11.059,3c2.944,0.034,5.84-0.74,8.375-2.237
			c5.309-3.498,8.351-9.561,7.98-15.908C255.099,329.386,247.18,316.691,234.92,309.691z M241.078,347.83
			c-0.882,0.539-3.02,0.566-6.164-1.105c-7.871-4.653-13.047-12.787-13.928-21.888c0-2.184,0.539-3.816,1.441-4.355
			c0.454-0.236,0.963-0.348,1.474-0.322c1.653,0.096,3.259,0.585,4.684,1.428c7.872,4.654,13.049,12.786,13.934,21.888
			C242.519,345.659,241.98,347.29,241.078,347.83z"/>
		<path style="fill:#428DFF;" d="M484.259,486.706c0.081-0.425,0.118-0.858,0.112-1.291c-0.045-0.441-0.135-0.877-0.268-1.3
			c-0.042-0.33-0.109-0.657-0.202-0.977L279.703,4.034c-0.049-0.114-0.148-0.183-0.202-0.292c-0.053-0.11-0.048-0.231-0.107-0.339
			c-0.199-0.276-0.42-0.535-0.66-0.776c-0.247-0.355-0.528-0.685-0.838-0.986c-0.355-0.286-0.738-0.534-1.145-0.739
			c-0.336-0.211-0.691-0.392-1.059-0.541c-0.427-0.129-0.866-0.213-1.311-0.252c-0.407-0.075-0.821-0.111-1.235-0.107
			c-0.441,0.046-0.876,0.137-1.299,0.27c-0.331,0.042-0.658,0.11-0.979,0.204c-0.115,0.049-0.184,0.148-0.294,0.201
			c-0.11,0.054-0.229,0.048-0.337,0.108L235.23,20.205c-0.267,0.193-0.518,0.407-0.752,0.64c-0.37,0.255-0.712,0.547-1.023,0.871
			c-0.076,0.088-0.194,0.142-0.266,0.234l-0.001-0.001l-16.581,21.243c-2.261,2.934-1.729,7.144,1.191,9.423s7.133,1.773,9.43-1.133
			l9.554-12.24l192.23,451.034L44.545,285.528l149.521-191.56c1.5-1.896,1.869-4.45,0.967-6.693
			c-0.902-2.243-2.936-3.831-5.331-4.161c-2.395-0.33-4.783,0.648-6.258,2.563L28.988,283.563l0.104,0.081
			c-0.272,0.276-0.519,0.576-0.737,0.896c-0.841,1.577-1.02,3.424-0.498,5.133c0.522,1.709,1.702,3.141,3.281,3.979l408.395,217.493
			c0.313,0.15,0.636,0.274,0.969,0.372c0.173,0.06,0.332,0.149,0.508,0.195c0.551,0.145,1.118,0.22,1.687,0.223l0.002,0l0.004,0
			c0.726-0.016,1.445-0.149,2.128-0.396c0.192-0.064,0.369-0.14,0.555-0.222c0.192-0.084,0.392-0.127,0.58-0.231l35.007-19.421
			c0.267-0.194,0.518-0.408,0.752-0.64c0.369-0.255,0.712-0.547,1.021-0.871c0.264-0.331,0.495-0.686,0.689-1.062
			c0.232-0.363,0.428-0.749,0.586-1.15C484.14,487.538,484.22,487.124,484.259,486.706z M247.075,29.037l23.164-12.851
			l198.887,466.647l-23.163,12.851L247.075,29.037z"/>
	</g>
</g>
<g>
</g>
<g>
</g>
<g>
</g>
<g>
</g>
<g>
</g>
<g>
</g>
<g>
</g>
<g>
</g>
<g>
</g>
<g>
</g>
<g>
</g>
<g>
</g>
<g>
</g>
<g>
</g>
<g>
</g>
</svg>
